<svg xmlns="http://www.w3.org/2000/svg" viewBox="0 0 64 64" role="img" aria-label="MD">
  <rect width="64" height="64" fill="#08090b"/>
  <rect x="4.16" y="4.16" width="55.68" height="55.68" rx="12.8" fill="none"
        stroke="#7c5cff" stroke-opacity=".84" stroke-width="1.4"/>
  <g transform="translate(13.44 21.08)"><path d="M19.40387760937947 13.618804689734059 21.123477266228196 14.213234200743495V14.616597083214184H14.510448956248213V14.213234200743495L16.27250786388333 13.703723191306835L15.380863597369174 1.698370031455534L15.54008578781813 1.7302144695453254L10.285753503002574 14.733360022876752H8.725376036602803L3.3436659994280813 1.8363625965112966L3.49227337718044 1.804518158421505L2.7704661138118385 13.671878753217044L4.553754646840149 14.213234200743495V14.616597083214184H0.0V14.213234200743495L1.7089848441521305 13.671878753217044L2.558169859879897 1.1357849585358881L0.7536517014583929 0.40336288247068985V0.0H5.912450672004575L10.710346010866457 11.644449528167002H10.434360880754932L15.147337718044037 0.0H20.146914498141268V0.40336288247068985L18.374240777809554 0.9659479553903356Z M33.93555619102088 7.143768944809838Q33.93555619102088 4.033628824706893 32.422945381755795 2.5369402344867042Q30.91033457249071 1.0402516442665153 28.13986845867887 1.0402516442665153H25.316328281384045L25.135876465541898 0.0H28.69183871890192Q31.462304832713755 0.0 33.33581927366314 0.7801887331998856Q35.20933371461253 1.5603774663997712 36.164666857306266 3.0995253074063482Q37.120000000000005 4.638673148412925 37.120000000000005 6.920857878181299Q37.120000000000005 9.394109236488418 36.026674292250505 11.113708893337147Q34.933348584501005 12.833308550185874 33.03860451815842 13.724952816700029Q31.143860451815847 14.616597083214184 28.766142407778098 14.616597083214184H25.135876465541898L25.316328281384045 13.576345438947671H28.405238776093796Q30.10360880754933 13.576345438947671 31.34023448670289 12.92353445810695Q32.57686016585645 12.270723477266229 33.25620817843867 10.853645982270518Q33.93555619102088 9.436568487274808 33.93555619102088 7.143768944809838ZM22.13188447240492 14.616597083214184V14.213234200743495L23.787795253074066 13.661263940520447V0.955333142693739L22.13188447240492 0.41397769516728644V0.0H26.844861309694025V14.616597083214184Z" fill="#f2f2f0"/></g>
  <rect x="20.49" y="41.25" width="23.01" height="1.66" fill="#7c5cff"/>
</svg>
